o 
v 0 2.267297426981199 0
v 0 2.267297426981199 0
v 0 2.267297426981199 0
v 0 2.267297426981199 0
v 0 2.267297426981199 0
v 0 2.267297426981199 0
v 0 2.267297426981199 0
v 0 2.267297426981199 0
v 0 2.267297426981199 0
v 0 0.06729737929748292 0.8999999761581421
v 0.6363961100578308 0.06729737929748292 0.6363961100578308
v 0.8999999761581421 0.06729737929748292 5.5109105057610103e-17
v 0.6363961100578308 0.06729737929748292 -0.6363961100578308
v 1.1021821011522021e-16 0.06729737929748292 -0.8999999761581421
v -0.6363961100578308 0.06729737929748292 -0.6363961100578308
v -0.8999999761581421 0.06729737929748292 -1.6532731848155276e-16
v -0.6363961100578308 0.06729737929748292 0.6363961100578308
v -2.2043642023044041e-16 0.06729737929748292 0.8999999761581421
vt 0 1
vt 0.125 1
vt 0.25 1
vt 0.375 1
vt 0.5 1
vt 0.625 1
vt 0.75 1
vt 0.875 1
vt 1 1
vt 0 0
vt 0.125 0
vt 0.25 0
vt 0.375 0
vt 0.5 0
vt 0.625 0
vt 0.75 0
vt 0.875 0
vt 1 0
vn 0 0.37863284804139297 0.9255469552562222
vn 0.6544605325036366 0.3786328337454541 0.6544605325036366
vn 0.9255469552562222 0.37863284804139297 5.667340684693117e-17
vn 0.6544605325036366 0.3786328337454541 -0.6544605325036366
vn 1.1334681369386233e-16 0.37863284804139297 -0.9255469552562222
vn -0.6544605325036366 0.3786328337454541 -0.6544605325036366
vn -0.9255469552562222 0.37863284804139297 -1.700202139233485e-16
vn -0.6544605325036366 0.3786328337454541 0.6544605325036366
vn -2.2669362738772466e-16 0.37863284804139297 0.9255469552562222
vn 0 0.37863284804139297 0.9255469552562222
vn 0.6544605325036366 0.3786328337454541 0.6544605325036366
vn 0.9255469552562222 0.37863284804139297 5.667340684693117e-17
vn 0.6544605325036366 0.3786328337454541 -0.6544605325036366
vn 1.1334681369386233e-16 0.37863284804139297 -0.9255469552562222
vn -0.6544605325036366 0.3786328337454541 -0.6544605325036366
vn -0.9255469552562222 0.37863284804139297 -1.700202139233485e-16
vn -0.6544605325036366 0.3786328337454541 0.6544605325036366
vn -2.2669362738772466e-16 0.37863284804139297 0.9255469552562222
f 1/1/1 10/10/10 2/2/2
f 10/10/10 11/11/11 2/2/2
f 2/2/2 11/11/11 3/3/3
f 11/11/11 12/12/12 3/3/3
f 3/3/3 12/12/12 4/4/4
f 12/12/12 13/13/13 4/4/4
f 4/4/4 13/13/13 5/5/5
f 13/13/13 14/14/14 5/5/5
f 5/5/5 14/14/14 6/6/6
f 14/14/14 15/15/15 6/6/6
f 6/6/6 15/15/15 7/7/7
f 15/15/15 16/16/16 7/7/7
f 7/7/7 16/16/16 8/8/8
f 16/16/16 17/17/17 8/8/8
f 8/8/8 17/17/17 9/9/9
f 17/17/17 18/18/18 9/9/9
o 
v 0 2.867297426981199 0.4000000059604645
v 0.31273260712623596 2.867297426981199 0.2493959218263626
v 0.38997116684913635 2.867297426981199 -0.0890083760023117
v 0.1735534965991974 2.867297426981199 -0.36038753390312195
v -0.1735534965991974 2.867297426981199 -0.36038753390312195
v -0.38997116684913635 2.867297426981199 -0.0890083760023117
v -0.31273260712623596 2.867297426981199 0.2493959218263626
v -9.797174158936853e-17 2.867297426981199 0.4000000059604645
v 0 1.6672973792974832 0.6000000238418579
v 0.46909889578819275 1.6672973792974832 0.3740938901901245
v 0.5849567651748657 1.6672973792974832 -0.13351255655288696
v 0.2603302299976349 1.6672973792974832 -0.5405813455581665
v -0.2603302299976349 1.6672973792974832 -0.5405813455581665
v -0.5849567651748657 1.6672973792974832 -0.13351255655288696
v -0.46909889578819275 1.6672973792974832 0.3740938901901245
v -1.4695762231022014e-16 1.6672973792974832 0.6000000238418579
v 0 2.867297426981199 0
v 0 2.867297426981199 0
v 0 2.867297426981199 0
v 0 2.867297426981199 0
v 0 2.867297426981199 0
v 0 2.867297426981199 0
v 0 2.867297426981199 0
v 0 2.867297426981199 0.4000000059604645
v 0.31273260712623596 2.867297426981199 0.2493959218263626
v 0.38997116684913635 2.867297426981199 -0.0890083760023117
v 0.1735534965991974 2.867297426981199 -0.36038753390312195
v -0.1735534965991974 2.867297426981199 -0.36038753390312195
v -0.38997116684913635 2.867297426981199 -0.0890083760023117
v -0.31273260712623596 2.867297426981199 0.2493959218263626
v -9.797174158936853e-17 2.867297426981199 0.4000000059604645
v 0 1.6672973792974832 0
v 0 1.6672973792974832 0
v 0 1.6672973792974832 0
v 0 1.6672973792974832 0
v 0 1.6672973792974832 0
v 0 1.6672973792974832 0
v 0 1.6672973792974832 0
v 0 1.6672973792974832 0.6000000238418579
v 0.46909889578819275 1.6672973792974832 0.3740938901901245
v 0.5849567651748657 1.6672973792974832 -0.13351255655288696
v 0.2603302299976349 1.6672973792974832 -0.5405813455581665
v -0.2603302299976349 1.6672973792974832 -0.5405813455581665
v -0.5849567651748657 1.6672973792974832 -0.13351255655288696
v -0.46909889578819275 1.6672973792974832 0.3740938901901245
v -1.4695762231022014e-16 1.6672973792974832 0.6000000238418579
vt 0 1
vt 0.1428571492433548 1
vt 0.2857142984867096 1
vt 0.4285714328289032 1
vt 0.5714285969734192 1
vt 0.7142857313156128 1
vt 0.8571428656578064 1
vt 1 1
vt 0 0
vt 0.1428571492433548 0
vt 0.2857142984867096 0
vt 0.4285714328289032 0
vt 0.5714285969734192 0
vt 0.7142857313156128 0
vt 0.8571428656578064 0
vt 1 0
vt 0.5 0.5
vt 0.5 0.5
vt 0.5 0.5
vt 0.5 0.5
vt 0.5 0.5
vt 0.5 0.5
vt 0.5 0.5
vt 1 0.5
vt 0.8117449283599854 0.8909157514572144
vt 0.38873952627182007 0.9874639511108398
vt 0.04951556771993637 0.7169418931007385
vt 0.04951556771993637 0.28305813670158386
vt 0.38873952627182007 0.012536044232547283
vt 0.8117449283599854 0.10908425599336624
vt 1 0.5
vt 0.5 0.5
vt 0.5 0.5
vt 0.5 0.5
vt 0.5 0.5
vt 0.5 0.5
vt 0.5 0.5
vt 0.5 0.5
vt 1 0.5
vt 0.8117449283599854 0.10908425599336624
vt 0.38873952627182007 0.012536044232547283
vt 0.04951556771993637 0.28305813670158386
vt 0.04951556771993637 0.7169418931007385
vt 0.38873952627182007 0.9874639511108398
vt 0.8117449283599854 0.8909157514572144
vt 1 0.5
vn 0 0.16439898247254828 0.986393924637612
vn 0.7711938090173849 0.16439898454080332 0.6150065713593718
vn 0.9616629673247077 0.1643989864020406 -0.21949330410338208
vn 0.42798028219337847 0.16439898628280888 -0.8887102178791808
vn -0.42798028219337847 0.16439898628280888 -0.8887102178791808
vn -0.9616629673247077 0.1643989864020406 -0.21949330410338208
vn -0.7711938090173849 0.16439898454080332 0.6150065713593718
vn -2.4159682431235084e-16 0.16439898247254828 0.986393924637612
vn 0 0.16439898247254828 0.986393924637612
vn 0.7711938090173849 0.16439898454080332 0.6150065713593718
vn 0.9616629673247077 0.1643989864020406 -0.21949330410338208
vn 0.42798028219337847 0.16439898628280888 -0.8887102178791808
vn -0.42798028219337847 0.16439898628280888 -0.8887102178791808
vn -0.9616629673247077 0.1643989864020406 -0.21949330410338208
vn -0.7711938090173849 0.16439898454080332 0.6150065713593718
vn -2.4159682431235084e-16 0.16439898247254828 0.986393924637612
vn 0 1 0
vn 0 1 0
vn 0 1 0
vn 0 1 0
vn 0 1 0
vn 0 1 0
vn 0 1 0
vn 0 1 0
vn 0 1 0
vn 0 1 0
vn 0 1 0
vn 0 1 0
vn 0 1 0
vn 0 1 0
vn 0 1 0
vn 0 -1 0
vn 0 -1 0
vn 0 -1 0
vn 0 -1 0
vn 0 -1 0
vn 0 -1 0
vn 0 -1 0
vn 0 -1 0
vn 0 -1 0
vn 0 -1 0
vn 0 -1 0
vn 0 -1 0
vn 0 -1 0
vn 0 -1 0
vn 0 -1 0
f 19/19/19 27/27/27 20/20/20
f 27/27/27 28/28/28 20/20/20
f 20/20/20 28/28/28 21/21/21
f 28/28/28 29/29/29 21/21/21
f 21/21/21 29/29/29 22/22/22
f 29/29/29 30/30/30 22/22/22
f 22/22/22 30/30/30 23/23/23
f 30/30/30 31/31/31 23/23/23
f 23/23/23 31/31/31 24/24/24
f 31/31/31 32/32/32 24/24/24
f 24/24/24 32/32/32 25/25/25
f 32/32/32 33/33/33 25/25/25
f 25/25/25 33/33/33 26/26/26
f 33/33/33 34/34/34 26/26/26
f 42/42/42 43/43/43 35/35/35
f 43/43/43 44/44/44 36/36/36
f 44/44/44 45/45/45 37/37/37
f 45/45/45 46/46/46 38/38/38
f 46/46/46 47/47/47 39/39/39
f 47/47/47 48/48/48 40/40/40
f 48/48/48 49/49/49 41/41/41
f 58/58/58 57/57/57 50/50/50
f 59/59/59 58/58/58 51/51/51
f 60/60/60 59/59/59 52/52/52
f 61/61/61 60/60/60 53/53/53
f 62/62/62 61/61/61 54/54/54
f 63/63/63 62/62/62 55/55/55
f 64/64/64 63/63/63 56/56/56
o 
v 0 2.517297403139341 3.061616997868383e-17
v 0 2.517297403139341 3.061616997868383e-17
v 0 2.517297403139341 3.061616997868383e-17
v 0 2.517297403139341 3.061616997868383e-17
v 0 2.517297403139341 3.061616997868383e-17
v 0 2.517297403139341 3.061616997868383e-17
v 0 2.517297403139341 3.061616997868383e-17
v 0 2.517297403139341 3.061616997868383e-17
v 0 3.017297403139341 -0.75
v 0.5863736271858215 3.017297403139341 -0.4676173627376557
v 0.7311959266662598 3.017297403139341 0.16689069569110868
v 0.3254128098487854 3.017297403139341 0.6757266521453857
v -0.3254128098487854 3.017297403139341 0.6757266521453857
v -0.7311959266662598 3.017297403139341 0.16689069569110868
v -0.5863736271858215 3.017297403139341 -0.4676173627376557
v -1.8369701465288538e-16 3.017297403139341 -0.75
v 0 3.017297403139341 -3.061616997868383e-17
v 0 3.017297403139341 -3.061616997868383e-17
v 0 3.017297403139341 -3.061616997868383e-17
v 0 3.017297403139341 -3.061616997868383e-17
v 0 3.017297403139341 -3.061616997868383e-17
v 0 3.017297403139341 -3.061616997868383e-17
v 0 3.017297403139341 -3.061616997868383e-17
v 0 3.017297403139341 -0.75
v 0.5863736271858215 3.017297403139341 -0.4676173627376557
v 0.7311959266662598 3.017297403139341 0.16689069569110868
v 0.3254128098487854 3.017297403139341 0.6757266521453857
v -0.3254128098487854 3.017297403139341 0.6757266521453857
v -0.7311959266662598 3.017297403139341 0.16689069569110868
v -0.5863736271858215 3.017297403139341 -0.4676173627376557
v -1.8369701465288538e-16 3.017297403139341 -0.75
vt 0 1
vt 0.1428571492433548 1
vt 0.2857142984867096 1
vt 0.4285714328289032 1
vt 0.5714285969734192 1
vt 0.7142857313156128 1
vt 0.8571428656578064 1
vt 1 1
vt 0 0
vt 0.1428571492433548 0
vt 0.2857142984867096 0
vt 0.4285714328289032 0
vt 0.5714285969734192 0
vt 0.7142857313156128 0
vt 0.8571428656578064 0
vt 1 0
vt 0.5 0.5
vt 0.5 0.5
vt 0.5 0.5
vt 0.5 0.5
vt 0.5 0.5
vt 0.5 0.5
vt 0.5 0.5
vt 1 0.5
vt 0.8117449283599854 0.10908425599336624
vt 0.38873952627182007 0.012536044232547283
vt 0.04951556771993637 0.28305813670158386
vt 0.04951556771993637 0.7169418931007385
vt 0.38873952627182007 0.9874639511108398
vt 0.8117449283599854 0.8909157514572144
vt 1 0.5
vn 0 -0.8320503035077887 -0.5547001824703112
vn 0.433682074283802 -0.8320503046847919 -0.3458498936227158
vn 0.5407926907068445 -0.8320503036053261 0.12343240234369526
vn 0.24067538500707977 -0.8320503070316426 0.49976759160658185
vn -0.24067538500707977 -0.8320503070316426 0.49976759160658185
vn -0.5407926907068445 -0.8320503036053261 0.12343240234369526
vn -0.433682074283802 -0.8320503046847919 -0.3458498936227158
vn -1.3586236094169518e-16 -0.8320503035077887 -0.5547001824703112
vn 0 -0.8320503035077887 -0.5547001824703112
vn 0.433682074283802 -0.8320503046847919 -0.3458498936227158
vn 0.5407926907068445 -0.8320503036053261 0.12343240234369526
vn 0.24067538500707977 -0.8320503070316426 0.49976759160658185
vn -0.24067538500707977 -0.8320503070316426 0.49976759160658185
vn -0.5407926907068445 -0.8320503036053261 0.12343240234369526
vn -0.433682074283802 -0.8320503046847919 -0.3458498936227158
vn -1.3586236094169518e-16 -0.8320503035077887 -0.5547001824703112
vn 0 1 -1.2246467991473532e-16
vn 0 1 -1.2246467991473532e-16
vn 0 1 -1.2246467991473532e-16
vn 0 1 -1.2246467991473532e-16
vn 0 1 -1.2246467991473532e-16
vn 0 1 -1.2246467991473532e-16
vn 0 1 -1.2246467991473532e-16
vn 0 1 -1.2246467991473532e-16
vn 0 1 -1.2246467991473532e-16
vn 0 1 -1.2246467991473532e-16
vn 0 1 -1.2246467991473532e-16
vn 0 1 -1.2246467991473532e-16
vn 0 1 -1.2246467991473532e-16
vn 0 1 -1.2246467991473532e-16
vn 0 1 -1.2246467991473532e-16
f 65/65/65 73/73/73 66/66/66
f 73/73/73 74/74/74 66/66/66
f 66/66/66 74/74/74 67/67/67
f 74/74/74 75/75/75 67/67/67
f 67/67/67 75/75/75 68/68/68
f 75/75/75 76/76/76 68/68/68
f 68/68/68 76/76/76 69/69/69
f 76/76/76 77/77/77 69/69/69
f 69/69/69 77/77/77 70/70/70
f 77/77/77 78/78/78 70/70/70
f 70/70/70 78/78/78 71/71/71
f 78/78/78 79/79/79 71/71/71
f 71/71/71 79/79/79 72/72/72
f 79/79/79 80/80/80 72/72/72
f 89/89/89 88/88/88 81/81/81
f 90/90/90 89/89/89 82/82/82
f 91/91/91 90/90/90 83/83/83
f 92/92/92 91/91/91 84/84/84
f 93/93/93 92/92/92 85/85/85
f 94/94/94 93/93/93 86/86/86
f 95/95/95 94/94/94 87/87/87
o 
v 0 3.6083273514845957 -0.1394011964894546
v 0 3.6083273514845957 -0.1394011964894546
v 0 3.6083273514845957 -0.1394011964894546
v 0 3.6083273514845957 -0.1394011964894546
v 0 3.6083273514845957 -0.1394011964894546
v 0 3.6083273514845957 -0.1394011964894546
v 0 3.6083273514845957 -0.1394011964894546
v 0 2.815668651283541 0.4804311448347092
v 0.3897114396095276 2.7709680530388137 0.2599161706620819
v 0.3897114396095276 2.681566856549359 -0.18111377768317277
v 5.5109105057610103e-17 2.636866258304632 -0.4016287518558001
v -0.3897114396095276 2.681566856549359 -0.18111377768317277
v -0.3897114396095276 2.7709680530388137 0.2599161706620819
v -1.1021821011522021e-16 2.815668651283541 0.4804311448347092
v 0 2.7262674547940864 0.039401196489454574
v 0 2.7262674547940864 0.039401196489454574
v 0 2.7262674547940864 0.039401196489454574
v 0 2.7262674547940864 0.039401196489454574
v 0 2.7262674547940864 0.039401196489454574
v 0 2.7262674547940864 0.039401196489454574
v 0 2.815668651283541 0.4804311448347092
v 0.3897114396095276 2.7709680530388137 0.2599161706620819
v 0.3897114396095276 2.681566856549359 -0.18111377768317277
v 5.5109105057610103e-17 2.636866258304632 -0.4016287518558001
v -0.3897114396095276 2.681566856549359 -0.18111377768317277
v -0.3897114396095276 2.7709680530388137 0.2599161706620819
v -1.1021821011522021e-16 2.815668651283541 0.4804311448347092
vt 0 1
vt 0.1666666716337204 1
vt 0.3333333432674408 1
vt 0.5 1
vt 0.6666666865348816 1
vt 0.8333333134651184 1
vt 1 1
vt 0 0
vt 0.1666666716337204 0
vt 0.3333333432674408 0
vt 0.5 0
vt 0.6666666865348816 0
vt 0.8333333134651184 0
vt 1 0
vt 0.5 0.5
vt 0.5 0.5
vt 0.5 0.5
vt 0.5 0.5
vt 0.5 0.5
vt 0.5 0.5
vt 1 0.5
vt 0.75 0.0669872984290123
vt 0.25 0.0669872984290123
vt 0 0.5
vt 0.25 0.9330127239227295
vt 0.75 0.9330127239227295
vt 1 0.5
vn 0 0.6159943495865807 0.7877505704710123
vn 0.7745966817074731 0.5271467111206782 0.3494514639294327
vn 0.7745966817074731 0.3494514639294327 -0.5271467111206782
vn 1.0953574109930888e-16 0.2606038466248614 -0.965445821951872
vn -0.7745966817074731 0.3494514639294327 -0.5271467111206782
vn -0.7745966817074731 0.5271467111206782 0.3494514639294327
vn -2.1907148219861777e-16 0.6159943495865807 0.7877505704710123
vn 0 0.6159943495865807 0.7877505704710123
vn 0.7745966817074731 0.5271467111206782 0.3494514639294327
vn 0.7745966817074731 0.3494514639294327 -0.5271467111206782
vn 1.0953574109930888e-16 0.2606038466248614 -0.965445821951872
vn -0.7745966817074731 0.3494514639294327 -0.5271467111206782
vn -0.7745966817074731 0.5271467111206782 0.3494514639294327
vn -2.1907148219861777e-16 0.6159943495865807 0.7877505704710123
vn 0 -0.9800665778412416 0.19866933079506124
vn 0 -0.9800665778412416 0.19866933079506124
vn 0 -0.9800665778412416 0.19866933079506124
vn 0 -0.9800665778412416 0.19866933079506124
vn 0 -0.9800665778412416 0.19866933079506124
vn 0 -0.9800665778412416 0.19866933079506124
vn 0 -0.9800665778412416 0.19866933079506124
vn 0 -0.9800665778412416 0.19866933079506124
vn 0 -0.9800665778412416 0.19866933079506124
vn 0 -0.9800665778412416 0.19866933079506124
vn 0 -0.9800665778412416 0.19866933079506124
vn 0 -0.9800665778412416 0.19866933079506124
vn 0 -0.9800665778412416 0.19866933079506124
f 96/96/96 103/103/103 97/97/97
f 103/103/103 104/104/104 97/97/97
f 97/97/97 104/104/104 98/98/98
f 104/104/104 105/105/105 98/98/98
f 98/98/98 105/105/105 99/99/99
f 105/105/105 106/106/106 99/99/99
f 99/99/99 106/106/106 100/100/100
f 106/106/106 107/107/107 100/100/100
f 100/100/100 107/107/107 101/101/101
f 107/107/107 108/108/108 101/101/101
f 101/101/101 108/108/108 102/102/102
f 108/108/108 109/109/109 102/102/102
f 117/117/117 116/116/116 110/110/110
f 118/118/118 117/117/117 111/111/111
f 119/119/119 118/118/118 112/112/112
f 120/120/120 119/119/119 113/113/113
f 121/121/121 120/120/120 114/114/114
f 122/122/122 121/121/121 115/115/115
o 
v 0 3.267297403139341 0.1
v 0 3.267297403139341 0.1
v 0 3.267297403139341 0.1
v 0 3.267297403139341 0.1
v 0 3.267297403139341 0.1
v 0 3.267297403139341 0.1
v 0 3.267297403139341 0.1
v -0.125 3.2338037501995447 0.1
v -0.0625 3.2338037501995447 0.20825317353010178
v 0.0625 3.2338037501995447 0.20825317353010178
v 0.125 3.2338037501995447 0.10000000000000002
v 0.0625 3.2338037501995447 -0.00825317353010177
v -0.0625 3.2338037501995447 -0.00825317353010177
v -0.125 3.2338037501995447 0.09999999999999998
v -0.21650634706020355 3.142297403139341 0.1
v -0.10825317353010178 3.142297403139341 0.2875
v 0.10825317353010178 3.142297403139341 0.2875
v 0.21650634706020355 3.142297403139341 0.10000000000000003
v 0.10825317353010178 3.142297403139341 -0.0875
v -0.10825317353010178 3.142297403139341 -0.0875
v -0.21650634706020355 3.142297403139341 0.09999999999999995
v -0.25 3.017297403139341 0.1
v -0.125 3.017297403139341 0.31650634706020353
v 0.125 3.017297403139341 0.31650634706020353
v 0.25 3.017297403139341 0.10000000000000003
v 0.125 3.017297403139341 -0.11650634706020355
v -0.125 3.017297403139341 -0.11650634706020355
v -0.25 3.017297403139341 0.09999999999999995
v -0.21650634706020355 2.892297403139341 0.1
v -0.10825317353010178 2.892297403139341 0.2875
v 0.10825317353010178 2.892297403139341 0.2875
v 0.21650634706020355 2.892297403139341 0.10000000000000003
v 0.10825317353010178 2.892297403139341 -0.0875
v -0.10825317353010178 2.892297403139341 -0.0875
v -0.21650634706020355 2.892297403139341 0.09999999999999995
v -0.125 2.8007910560791376 0.1
v -0.0625 2.8007910560791376 0.20825317353010178
v 0.0625 2.8007910560791376 0.20825317353010178
v 0.125 2.8007910560791376 0.10000000000000002
v 0.0625 2.8007910560791376 -0.00825317353010177
v -0.0625 2.8007910560791376 -0.00825317353010177
v -0.125 2.8007910560791376 0.09999999999999998
v -3.0616171314629196e-17 2.767297403139341 0.1
v -1.5308085657314598e-17 2.767297403139341 0.10000000000000003
v 1.5308085657314598e-17 2.767297403139341 0.10000000000000003
v 3.0616171314629196e-17 2.767297403139341 0.1
v 1.5308085657314598e-17 2.767297403139341 0.09999999999999998
v -1.5308085657314598e-17 2.767297403139341 0.09999999999999998
v -3.0616171314629196e-17 2.767297403139341 0.1
vt 0.0833333358168602 1
vt 0.25 1
vt 0.4166666567325592 1
vt 0.5833333134651184 1
vt 0.75 1
vt 0.9166666865348816 1
vt 1.0833333730697632 1
vt 0 0.8333333134651184
vt 0.1666666716337204 0.8333333134651184
vt 0.3333333432674408 0.8333333134651184
vt 0.5 0.8333333134651184
vt 0.6666666865348816 0.8333333134651184
vt 0.8333333134651184 0.8333333134651184
vt 1 0.8333333134651184
vt 0 0.6666666865348816
vt 0.1666666716337204 0.6666666865348816
vt 0.3333333432674408 0.6666666865348816
vt 0.5 0.6666666865348816
vt 0.6666666865348816 0.6666666865348816
vt 0.8333333134651184 0.6666666865348816
vt 1 0.6666666865348816
vt 0 0.5
vt 0.1666666716337204 0.5
vt 0.3333333432674408 0.5
vt 0.5 0.5
vt 0.6666666865348816 0.5
vt 0.8333333134651184 0.5
vt 1 0.5
vt 0 0.3333333432674408
vt 0.1666666716337204 0.3333333432674408
vt 0.3333333432674408 0.3333333432674408
vt 0.5 0.3333333432674408
vt 0.6666666865348816 0.3333333432674408
vt 0.8333333134651184 0.3333333432674408
vt 1 0.3333333432674408
vt 0 0.1666666716337204
vt 0.1666666716337204 0.1666666716337204
vt 0.3333333432674408 0.1666666716337204
vt 0.5 0.1666666716337204
vt 0.6666666865348816 0.1666666716337204
vt 0.8333333134651184 0.1666666716337204
vt 1 0.1666666716337204
vt -0.0833333358168602 0
vt 0.0833333358168602 0
vt 0.25 0
vt 0.4166666567325592 0
vt 0.5833333134651184 0
vt 0.75 0
vt 0.9166666865348816 0
vn 0 1 0
vn 0 1 0
vn 0 1 0
vn 0 1 0
vn 0 1 0
vn 0 1 0
vn 0 1 0
vn -0.5000000067305869 0.8660253998985324 0
vn -0.25000000420661683 0.8660254028129621 0.43301270140648107
vn 0.25000000420661683 0.8660254028129621 0.43301270140648107
vn 0.5000000067305869 0.8660253998985324 6.12323434535176e-17
vn 0.25000000420661683 0.8660254028129621 -0.43301270140648107
vn -0.25000000420661683 0.8660254028129621 -0.43301270140648107
vn -0.5000000067305869 0.8660253998985324 -1.224646869070352e-16
vn -0.8660253998985324 0.5000000067305869 0
vn -0.43301269557762184 0.5000000016826467 0.75000000252397
vn 0.43301269557762184 0.5000000016826467 0.75000000252397
vn 0.8660253998985324 0.5000000067305869 1.0605752614896174e-16
vn 0.43301269557762184 0.5000000016826467 -0.75000000252397
vn -0.43301269557762184 0.5000000016826467 -0.75000000252397
vn -0.8660253998985324 0.5000000067305869 -2.1211505229792348e-16
vn -1 6.123234262925839e-17 0
vn -0.5000000067305869 6.12323434535176e-17 0.8660253998985324
vn 0.5000000067305869 6.12323434535176e-17 0.8660253998985324
vn 1 6.123234262925839e-17 1.2246468525851679e-16
vn 0.5000000067305869 6.12323434535176e-17 -0.8660253998985324
vn -0.5000000067305869 6.12323434535176e-17 -0.8660253998985324
vn -1 6.123234262925839e-17 -2.4492937051703357e-16
vn -0.8660253998985324 -0.5000000067305869 0
vn -0.43301269557762184 -0.5000000016826467 0.75000000252397
vn 0.43301269557762184 -0.5000000016826467 0.75000000252397
vn 0.8660253998985324 -0.5000000067305869 1.0605752614896174e-16
vn 0.43301269557762184 -0.5000000016826467 -0.75000000252397
vn -0.43301269557762184 -0.5000000016826467 -0.75000000252397
vn -0.8660253998985324 -0.5000000067305869 -2.1211505229792348e-16
vn -0.5000000067305869 -0.8660253998985324 0
vn -0.25000000420661683 -0.8660254028129621 0.43301270140648107
vn 0.25000000420661683 -0.8660254028129621 0.43301270140648107
vn 0.5000000067305869 -0.8660253998985324 6.12323434535176e-17
vn 0.25000000420661683 -0.8660254028129621 -0.43301270140648107
vn -0.25000000420661683 -0.8660254028129621 -0.43301270140648107
vn -0.5000000067305869 -0.8660253998985324 -1.224646869070352e-16
vn -1.2246468525851679e-16 -1 0
vn -6.123234262925839e-17 -1 1.0605752472130298e-16
vn 6.123234262925839e-17 -1 1.0605752472130298e-16
vn 1.2246468525851679e-16 -1 1.4997597572211942e-32
vn 6.123234262925839e-17 -1 -1.0605752472130298e-16
vn -6.123234262925839e-17 -1 -1.0605752472130298e-16
vn -1.2246468525851679e-16 -1 -2.9995195144423884e-32
f 123/123/123 130/130/130 131/131/131
f 124/124/124 131/131/131 132/132/132
f 125/125/125 132/132/132 133/133/133
f 126/126/126 133/133/133 134/134/134
f 127/127/127 134/134/134 135/135/135
f 128/128/128 135/135/135 136/136/136
f 131/131/131 130/130/130 138/138/138
f 130/130/130 137/137/137 138/138/138
f 132/132/132 131/131/131 139/139/139
f 131/131/131 138/138/138 139/139/139
f 133/133/133 132/132/132 140/140/140
f 132/132/132 139/139/139 140/140/140
f 134/134/134 133/133/133 141/141/141
f 133/133/133 140/140/140 141/141/141
f 135/135/135 134/134/134 142/142/142
f 134/134/134 141/141/141 142/142/142
f 136/136/136 135/135/135 143/143/143
f 135/135/135 142/142/142 143/143/143
f 138/138/138 137/137/137 145/145/145
f 137/137/137 144/144/144 145/145/145
f 139/139/139 138/138/138 146/146/146
f 138/138/138 145/145/145 146/146/146
f 140/140/140 139/139/139 147/147/147
f 139/139/139 146/146/146 147/147/147
f 141/141/141 140/140/140 148/148/148
f 140/140/140 147/147/147 148/148/148
f 142/142/142 141/141/141 149/149/149
f 141/141/141 148/148/148 149/149/149
f 143/143/143 142/142/142 150/150/150
f 142/142/142 149/149/149 150/150/150
f 145/145/145 144/144/144 152/152/152
f 144/144/144 151/151/151 152/152/152
f 146/146/146 145/145/145 153/153/153
f 145/145/145 152/152/152 153/153/153
f 147/147/147 146/146/146 154/154/154
f 146/146/146 153/153/153 154/154/154
f 148/148/148 147/147/147 155/155/155
f 147/147/147 154/154/154 155/155/155
f 149/149/149 148/148/148 156/156/156
f 148/148/148 155/155/155 156/156/156
f 150/150/150 149/149/149 157/157/157
f 149/149/149 156/156/156 157/157/157
f 152/152/152 151/151/151 159/159/159
f 151/151/151 158/158/158 159/159/159
f 153/153/153 152/152/152 160/160/160
f 152/152/152 159/159/159 160/160/160
f 154/154/154 153/153/153 161/161/161
f 153/153/153 160/160/160 161/161/161
f 155/155/155 154/154/154 162/162/162
f 154/154/154 161/161/161 162/162/162
f 156/156/156 155/155/155 163/163/163
f 155/155/155 162/162/162 163/163/163
f 157/157/157 156/156/156 164/164/164
f 156/156/156 163/163/163 164/164/164
f 159/159/159 158/158/158 166/166/166
f 160/160/160 159/159/159 167/167/167
f 161/161/161 160/160/160 168/168/168
f 162/162/162 161/161/161 169/169/169
f 163/163/163 162/162/162 170/170/170
f 164/164/164 163/163/163 171/171/171
o 
v 0 3.1583273514845955 0.33940119648945455
v 0 3.1583273514845955 0.33940119648945455
v 0 3.1583273514845955 0.33940119648945455
v 0 3.1583273514845955 0.33940119648945455
v 0 3.1583273514845955 0.33940119648945455
v 0 3.1583273514845955 0.33940119648945455
v 0 2.2206400419346366 0.43501744647442353
v 0.26629582047462463 2.2590776396681838 0.24539882380932804
v 0.1645798683166504 2.3212709763497132 -0.061410538270176174
v -0.1645798683166504 2.3212709763497132 -0.061410538270176174
v -0.26629582047462463 2.2590776396681838 0.24539882380932804
v -6.858022109779144e-17 2.2206400419346366 0.43501744647442353
v 0 2.276267454794086 0.16059880351054542
v 0 2.276267454794086 0.16059880351054542
v 0 2.276267454794086 0.16059880351054542
v 0 2.276267454794086 0.16059880351054542
v 0 2.276267454794086 0.16059880351054542
v 0 2.2206400419346366 0.43501744647442353
v 0.26629582047462463 2.2590776396681838 0.24539882380932804
v 0.1645798683166504 2.3212709763497132 -0.061410538270176174
v -0.1645798683166504 2.3212709763497132 -0.061410538270176174
v -0.26629582047462463 2.2590776396681838 0.24539882380932804
v -6.858022109779144e-17 2.2206400419346366 0.43501744647442353
vt 0 1
vt 0.20000000298023224 1
vt 0.4000000059604645 1
vt 0.6000000238418579 1
vt 0.800000011920929 1
vt 1 1
vt 0 0
vt 0.20000000298023224 0
vt 0.4000000059604645 0
vt 0.6000000238418579 0
vt 0.800000011920929 0
vt 1 0
vt 0.5 0.5
vt 0.5 0.5
vt 0.5 0.5
vt 0.5 0.5
vt 0.5 0.5
vt 1 0.5
vt 0.6545084714889526 0.024471741169691086
vt 0.09549150615930557 0.20610737800598145
vt 0.09549150615930557 0.7938926219940186
vt 0.6545084714889526 0.9755282402038574
vt 1 0.5
vn 0 0.10144423721250292 0.9948412268982291
vn 0.9081227630077121 0.2325242230067429 0.34820329266442807
vn 0.5612507307947419 0.44461611651263816 -0.6980788824478137
vn -0.5612507307947419 0.44461611651263816 -0.6980788824478137
vn -0.9081227630077121 0.2325242230067429 0.34820329266442807
vn -2.3387247316431894e-16 0.10144423721250292 0.9948412268982291
vn 0 0.10144423721250292 0.9948412268982291
vn 0.9081227630077121 0.2325242230067429 0.34820329266442807
vn 0.5612507307947419 0.44461611651263816 -0.6980788824478137
vn -0.5612507307947419 0.44461611651263816 -0.6980788824478137
vn -0.9081227630077121 0.2325242230067429 0.34820329266442807
vn -2.3387247316431894e-16 0.10144423721250292 0.9948412268982291
vn 0 -0.9800665778412416 -0.19866933079506124
vn 0 -0.9800665778412416 -0.19866933079506124
vn 0 -0.9800665778412416 -0.19866933079506124
vn 0 -0.9800665778412416 -0.19866933079506124
vn 0 -0.9800665778412416 -0.19866933079506124
vn 0 -0.9800665778412416 -0.19866933079506124
vn 0 -0.9800665778412416 -0.19866933079506124
vn 0 -0.9800665778412416 -0.19866933079506124
vn 0 -0.9800665778412416 -0.19866933079506124
vn 0 -0.9800665778412416 -0.19866933079506124
vn 0 -0.9800665778412416 -0.19866933079506124
f 172/172/172 178/178/178 173/173/173
f 178/178/178 179/179/179 173/173/173
f 173/173/173 179/179/179 174/174/174
f 179/179/179 180/180/180 174/174/174
f 174/174/174 180/180/180 175/175/175
f 180/180/180 181/181/181 175/175/175
f 175/175/175 181/181/181 176/176/176
f 181/181/181 182/182/182 176/176/176
f 176/176/176 182/182/182 177/177/177
f 182/182/182 183/183/183 177/177/177
f 190/190/190 189/189/189 184/184/184
f 191/191/191 190/190/190 185/185/185
f 192/192/192 191/191/191 186/186/186
f 193/193/193 192/192/192 187/187/187
f 194/194/194 193/193/193 188/188/188
o 
v -0.7947091711543253 2.8484483521304913 0.15551670686784475
v -0.6750598404156024 2.8831267068467206 0.07196163994049944
v -0.6750598404156024 2.8533263060432996 -0.07504835257733886
v -0.7947091711543253 2.7888475505236503 -0.1385032781678318
v -0.914358501893048 2.754169195807421 -0.054948211240486516
v -0.914358501893048 2.7839695966108415 0.09206178127735178
v -0.7947091711543253 2.8484483521304913 0.15551670686784475
v -0.4052908288456747 1.9755476565584522 0.4855132706856701
v -0.16599216736822908 2.0449043659909103 0.31840313683097954
v -0.16599216736822908 1.9853035643840689 0.02438315179530294
v -0.4052908288456747 1.8563460533447693 -0.10252669938568301
v -0.6445894903231204 1.7869893439123112 0.06458343446900759
v -0.6445894903231204 1.8465901455191527 0.3586034195046841
v -0.4052908288456748 1.9755476565584522 0.4855132706856701
v -0.7947091711543253 2.818647951327071 0.008506714350006467
v -0.7947091711543253 2.818647951327071 0.008506714350006467
v -0.7947091711543253 2.818647951327071 0.008506714350006467
v -0.7947091711543253 2.818647951327071 0.008506714350006467
v -0.7947091711543253 2.818647951327071 0.008506714350006467
v -0.7947091711543253 2.818647951327071 0.008506714350006467
v -0.7947091711543253 2.8484483521304913 0.15551670686784475
v -0.6750598404156024 2.8831267068467206 0.07196163994049944
v -0.6750598404156024 2.8533263060432996 -0.07504835257733886
v -0.7947091711543253 2.7888475505236503 -0.1385032781678318
v -0.914358501893048 2.754169195807421 -0.054948211240486516
v -0.914358501893048 2.7839695966108415 0.09206178127735178
v -0.7947091711543253 2.8484483521304913 0.15551670686784475
v -0.4052908288456747 1.9159468549516108 0.19149328564999354
v -0.4052908288456747 1.9159468549516108 0.19149328564999354
v -0.4052908288456747 1.9159468549516108 0.19149328564999354
v -0.4052908288456747 1.9159468549516108 0.19149328564999354
v -0.4052908288456747 1.9159468549516108 0.19149328564999354
v -0.4052908288456747 1.9159468549516108 0.19149328564999354
v -0.4052908288456747 1.9755476565584522 0.4855132706856701
v -0.16599216736822908 2.0449043659909103 0.31840313683097954
v -0.16599216736822908 1.9853035643840689 0.02438315179530294
v -0.4052908288456747 1.8563460533447693 -0.10252669938568301
v -0.6445894903231204 1.7869893439123112 0.06458343446900759
v -0.6445894903231204 1.8465901455191527 0.3586034195046841
v -0.4052908288456748 1.9755476565584522 0.4855132706856701
vt 0 1
vt 0.1666666716337204 1
vt 0.3333333432674408 1
vt 0.5 1
vt 0.6666666865348816 1
vt 0.8333333134651184 1
vt 1 1
vt 0 0
vt 0.1666666716337204 0
vt 0.3333333432674408 0
vt 0.5 0
vt 0.6666666865348816 0
vt 0.8333333134651184 0
vt 1 0
vt 0.5 0.5
vt 0.5 0.5
vt 0.5 0.5
vt 0.5 0.5
vt 0.5 0.5
vt 0.5 0.5
vt 1 0.5
vt 0.75 0.9330127239227295
vt 0.25 0.9330127239227295
vt 0 0.5
vt 0.25 0.0669872984290123
vt 0.75 0.0669872984290123
vt 1 0.5
vt 0.5 0.5
vt 0.5 0.5
vt 0.5 0.5
vt 0.5 0.5
vt 0.5 0.5
vt 0.5 0.5
vt 1 0.5
vt 0.75 0.0669872984290123
vt 0.25 0.0669872984290123
vt 0 0.5
vt 0.25 0.9330127239227295
vt 0.75 0.9330127239227295
vt 1 0.5
vn -0.05776649100737197 0.3303784078318129 0.942079158115289
vn 0.7310706716801639 0.5590096566741579 0.39120822684876433
vn 0.7310706716801639 0.36253833083655906 -0.5780152521200074
vn -0.057766491007371856 -0.06256423936212467 -0.996367777715505
vn -0.8466036550124878 -0.29119548515022003 -0.44549684706810744
vn -0.8466036550124878 -0.09472415931262126 0.5237266319006643
vn -0.05776649100737219 0.3303784078318128 0.942079158115289
vn -0.05776649100737197 0.3303784078318129 0.942079158115289
vn 0.7310706716801639 0.5590096566741579 0.39120822684876433
vn 0.7310706716801639 0.36253833083655906 -0.5780152521200074
vn -0.057766491007371856 -0.06256423936212467 -0.996367777715505
vn -0.8466036550124878 -0.29119548515022003 -0.44549684706810744
vn -0.8466036550124878 -0.09472415931262126 0.5237266319006643
vn -0.05776649100737219 0.3303784078318128 0.942079158115289
vn -0.3894183423086506 0.90270109637546 -0.18298657129998708
vn -0.3894183423086506 0.90270109637546 -0.18298657129998708
vn -0.3894183423086506 0.90270109637546 -0.18298657129998708
vn -0.3894183423086506 0.90270109637546 -0.18298657129998708
vn -0.3894183423086506 0.90270109637546 -0.18298657129998708
vn -0.3894183423086506 0.90270109637546 -0.18298657129998708
vn -0.3894183423086506 0.90270109637546 -0.18298657129998708
vn -0.3894183423086506 0.90270109637546 -0.18298657129998708
vn -0.3894183423086506 0.90270109637546 -0.18298657129998708
vn -0.3894183423086506 0.90270109637546 -0.18298657129998708
vn -0.3894183423086506 0.90270109637546 -0.18298657129998708
vn -0.3894183423086506 0.90270109637546 -0.18298657129998708
vn -0.3894183423086506 0.90270109637546 -0.18298657129998708
vn 0.3894183423086506 -0.90270109637546 0.18298657129998708
vn 0.3894183423086506 -0.90270109637546 0.18298657129998708
vn 0.3894183423086506 -0.90270109637546 0.18298657129998708
vn 0.3894183423086506 -0.90270109637546 0.18298657129998708
vn 0.3894183423086506 -0.90270109637546 0.18298657129998708
vn 0.3894183423086506 -0.90270109637546 0.18298657129998708
vn 0.3894183423086506 -0.90270109637546 0.18298657129998708
vn 0.3894183423086506 -0.90270109637546 0.18298657129998708
vn 0.3894183423086506 -0.90270109637546 0.18298657129998708
vn 0.3894183423086506 -0.90270109637546 0.18298657129998708
vn 0.3894183423086506 -0.90270109637546 0.18298657129998708
vn 0.3894183423086506 -0.90270109637546 0.18298657129998708
vn 0.3894183423086506 -0.90270109637546 0.18298657129998708
f 195/195/195 202/202/202 196/196/196
f 202/202/202 203/203/203 196/196/196
f 196/196/196 203/203/203 197/197/197
f 203/203/203 204/204/204 197/197/197
f 197/197/197 204/204/204 198/198/198
f 204/204/204 205/205/205 198/198/198
f 198/198/198 205/205/205 199/199/199
f 205/205/205 206/206/206 199/199/199
f 199/199/199 206/206/206 200/200/200
f 206/206/206 207/207/207 200/200/200
f 200/200/200 207/207/207 201/201/201
f 207/207/207 208/208/208 201/201/201
f 215/215/215 216/216/216 209/209/209
f 216/216/216 217/217/217 210/210/210
f 217/217/217 218/218/218 211/211/211
f 218/218/218 219/219/219 212/212/212
f 219/219/219 220/220/220 213/213/213
f 220/220/220 221/221/221 214/214/214
f 229/229/229 228/228/228 222/222/222
f 230/230/230 229/229/229 223/223/223
f 231/231/231 230/230/230 224/224/224
f 232/232/232 231/231/231 225/225/225
f 233/233/233 232/232/232 226/226/226
f 234/234/234 233/233/233 227/227/227
o 
v 0.7947091711543253 2.699537102878284 0.5524274710829336
v 0.914358501893048 2.6910998158810004 0.46235611224349316
v 0.914358501893048 2.76301364952923 0.33071872272913755
v 0.7947091711543253 2.843364770174743 0.2891526920542223
v 0.6750598404156024 2.851802057172026 0.3792240508936626
v 0.6750598404156024 2.779888223523797 0.5108614404080183
v 0.7947091711543252 2.699537102878284 0.5524274710829336
v 0.40529082884567474 1.8193162024557097 0.24248469746013335
v 0.6445894903231204 1.8024416284611426 0.062341979781252665
v 0.6445894903231204 1.9462692957576013 -0.20093279924745855
v 0.4052908288456748 2.106971537048627 -0.2840648605972891
v 0.16599216736822908 2.1238461110431937 -0.1039221429184084
v 0.16599216736822908 1.9800184437467352 0.15935263611030281
v 0.4052908288456747 1.8193162024557097 0.24248469746013335
v 0.7947091711543253 2.7714509365265134 0.4207900815685779
v 0.7947091711543253 2.7714509365265134 0.4207900815685779
v 0.7947091711543253 2.7714509365265134 0.4207900815685779
v 0.7947091711543253 2.7714509365265134 0.4207900815685779
v 0.7947091711543253 2.7714509365265134 0.4207900815685779
v 0.7947091711543253 2.7714509365265134 0.4207900815685779
v 0.7947091711543253 2.699537102878284 0.5524274710829336
v 0.914358501893048 2.6910998158810004 0.46235611224349316
v 0.914358501893048 2.76301364952923 0.33071872272913755
v 0.7947091711543253 2.843364770174743 0.2891526920542223
v 0.6750598404156024 2.851802057172026 0.3792240508936626
v 0.6750598404156024 2.779888223523797 0.5108614404080183
v 0.7947091711543252 2.699537102878284 0.5524274710829336
v 0.40529082884567474 1.9631438697521681 -0.020790081568577867
v 0.40529082884567474 1.9631438697521681 -0.020790081568577867
v 0.40529082884567474 1.9631438697521681 -0.020790081568577867
v 0.40529082884567474 1.9631438697521681 -0.020790081568577867
v 0.40529082884567474 1.9631438697521681 -0.020790081568577867
v 0.40529082884567474 1.9631438697521681 -0.020790081568577867
v 0.40529082884567474 1.8193162024557097 0.24248469746013335
v 0.6445894903231204 1.8024416284611426 0.062341979781252665
v 0.6445894903231204 1.9462692957576013 -0.20093279924745855
v 0.4052908288456748 2.106971537048627 -0.2840648605972891
v 0.16599216736822908 2.1238461110431937 -0.1039221429184084
v 0.16599216736822908 1.9800184437467352 0.15935263611030281
v 0.4052908288456747 1.8193162024557097 0.24248469746013335
vt 0 1
vt 0.1666666716337204 1
vt 0.3333333432674408 1
vt 0.5 1
vt 0.6666666865348816 1
vt 0.8333333134651184 1
vt 1 1
vt 0 0
vt 0.1666666716337204 0
vt 0.3333333432674408 0
vt 0.5 0
vt 0.6666666865348816 0
vt 0.8333333134651184 0
vt 1 0
vt 0.5 0.5
vt 0.5 0.5
vt 0.5 0.5
vt 0.5 0.5
vt 0.5 0.5
vt 0.5 0.5
vt 1 0.5
vt 0.75 0.9330127239227295
vt 0.25 0.9330127239227295
vt 0 0.5
vt 0.25 0.0669872984290123
vt 0.75 0.0669872984290123
vt 1 0.5
vt 0.5 0.5
vt 0.5 0.5
vt 0.5 0.5
vt 0.5 0.5
vt 0.5 0.5
vt 0.5 0.5
vt 1 0.5
vt 0.75 0.0669872984290123
vt 0.25 0.0669872984290123
vt 0 0.5
vt 0.25 0.9330127239227295
vt 0.75 0.9330127239227295
vt 1 0.5
vn 0.05776649100737198 -0.35421671235821195 0.9333774976947082
vn 0.8466036550124878 -0.4098429927451811 0.3395452438441307
vn 0.8466036550124878 0.06427835670023747 -0.5283280649174468
vn 0.05776649100737204 0.5940259757185227 -0.802369100033365
vn -0.7310706716801639 0.6496522588403634 -0.20853684468872052
vn -0.7310706716801639 0.1755309093949448 0.659336464072857
vn 0.05776649100737176 -0.3542167123582119 0.9333774976947082
vn 0.05776649100737198 -0.35421671235821195 0.9333774976947082
vn 0.8466036550124878 -0.4098429927451811 0.3395452438441307
vn 0.8466036550124878 0.06427835670023747 -0.5283280649174468
vn 0.05776649100737204 0.5940259757185227 -0.802369100033365
vn -0.7310706716801639 0.6496522588403634 -0.20853684468872052
vn -0.7310706716801639 0.1755309093949448 0.659336464072857
vn 0.05776649100737176 -0.3542167123582119 0.9333774976947082
vn 0.38941834230865047 0.8083070667743452 0.4415801631371558
vn 0.38941834230865047 0.8083070667743452 0.4415801631371558
vn 0.38941834230865047 0.8083070667743452 0.4415801631371558
vn 0.38941834230865047 0.8083070667743452 0.4415801631371558
vn 0.38941834230865047 0.8083070667743452 0.4415801631371558
vn 0.38941834230865047 0.8083070667743452 0.4415801631371558
vn 0.38941834230865047 0.8083070667743452 0.4415801631371558
vn 0.38941834230865047 0.8083070667743452 0.4415801631371558
vn 0.38941834230865047 0.8083070667743452 0.4415801631371558
vn 0.38941834230865047 0.8083070667743452 0.4415801631371558
vn 0.38941834230865047 0.8083070667743452 0.4415801631371558
vn 0.38941834230865047 0.8083070667743452 0.4415801631371558
vn 0.38941834230865047 0.8083070667743452 0.4415801631371558
vn -0.38941834230865047 -0.8083070667743452 -0.4415801631371558
vn -0.38941834230865047 -0.8083070667743452 -0.4415801631371558
vn -0.38941834230865047 -0.8083070667743452 -0.4415801631371558
vn -0.38941834230865047 -0.8083070667743452 -0.4415801631371558
vn -0.38941834230865047 -0.8083070667743452 -0.4415801631371558
vn -0.38941834230865047 -0.8083070667743452 -0.4415801631371558
vn -0.38941834230865047 -0.8083070667743452 -0.4415801631371558
vn -0.38941834230865047 -0.8083070667743452 -0.4415801631371558
vn -0.38941834230865047 -0.8083070667743452 -0.4415801631371558
vn -0.38941834230865047 -0.8083070667743452 -0.4415801631371558
vn -0.38941834230865047 -0.8083070667743452 -0.4415801631371558
vn -0.38941834230865047 -0.8083070667743452 -0.4415801631371558
vn -0.38941834230865047 -0.8083070667743452 -0.4415801631371558
f 235/235/235 242/242/242 236/236/236
f 242/242/242 243/243/243 236/236/236
f 236/236/236 243/243/243 237/237/237
f 243/243/243 244/244/244 237/237/237
f 237/237/237 244/244/244 238/238/238
f 244/244/244 245/245/245 238/238/238
f 238/238/238 245/245/245 239/239/239
f 245/245/245 246/246/246 239/239/239
f 239/239/239 246/246/246 240/240/240
f 246/246/246 247/247/247 240/240/240
f 240/240/240 247/247/247 241/241/241
f 247/247/247 248/248/248 241/241/241
f 255/255/255 256/256/256 249/249/249
f 256/256/256 257/257/257 250/250/250
f 257/257/257 258/258/258 251/251/251
f 258/258/258 259/259/259 252/252/252
f 259/259/259 260/260/260 253/253/253
f 260/260/260 261/261/261 254/254/254
f 269/269/269 268/268/268 262/262/262
f 270/270/270 269/269/269 263/263/263
f 271/271/271 270/270/270 264/264/264
f 272/272/272 271/271/271 265/265/265
f 273/273/273 272/272/272 266/266/266
f 274/274/274 273/273/273 267/267/267
o 
v 0.8 3.9672974269811987 0.43999999910593035
v 0.8380422621965409 3.9672974269811987 0.4123606799170375
v 0.8235114097595215 3.9672974269811987 0.3676393195986748
v 0.7764885902404786 3.9672974269811987 0.3676393195986748
v 0.7619577378034592 3.9672974269811987 0.4123606799170375
v 0.8 3.9672974269811987 0.43999999910593035
v 0.8 0.7672973792974829 0.4500000007450581
v 0.8475528240203858 0.7672973792974829 0.4154508501291275
v 0.8293892621994019 0.7672973792974829 0.35954915136098864
v 0.7706107378005982 0.7672973792974829 0.35954915136098864
v 0.7524471759796143 0.7672973792974829 0.4154508501291275
v 0.8 0.7672973792974829 0.4500000007450581
v 0.8 3.9672974269811987 0.4
v 0.8 3.9672974269811987 0.4
v 0.8 3.9672974269811987 0.4
v 0.8 3.9672974269811987 0.4
v 0.8 3.9672974269811987 0.4
v 0.8 3.9672974269811987 0.43999999910593035
v 0.8380422621965409 3.9672974269811987 0.4123606799170375
v 0.8235114097595215 3.9672974269811987 0.3676393195986748
v 0.7764885902404786 3.9672974269811987 0.3676393195986748
v 0.7619577378034592 3.9672974269811987 0.4123606799170375
v 0.8 3.9672974269811987 0.43999999910593035
v 0.8 0.7672973792974829 0.4
v 0.8 0.7672973792974829 0.4
v 0.8 0.7672973792974829 0.4
v 0.8 0.7672973792974829 0.4
v 0.8 0.7672973792974829 0.4
v 0.8 0.7672973792974829 0.4500000007450581
v 0.8475528240203858 0.7672973792974829 0.4154508501291275
v 0.8293892621994019 0.7672973792974829 0.35954915136098864
v 0.7706107378005982 0.7672973792974829 0.35954915136098864
v 0.7524471759796143 0.7672973792974829 0.4154508501291275
v 0.8 0.7672973792974829 0.4500000007450581
vt 0 1
vt 0.20000000298023224 1
vt 0.4000000059604645 1
vt 0.6000000238418579 1
vt 0.800000011920929 1
vt 1 1
vt 0 0
vt 0.20000000298023224 0
vt 0.4000000059604645 0
vt 0.6000000238418579 0
vt 0.800000011920929 0
vt 1 0
vt 0.5 0.5
vt 0.5 0.5
vt 0.5 0.5
vt 0.5 0.5
vt 0.5 0.5
vt 1 0.5
vt 0.6545084714889526 0.9755282402038574
vt 0.09549150615930557 0.7938926219940186
vt 0.09549150615930557 0.20610737800598145
vt 0.6545084714889526 0.024471741169691086
vt 1 0.5
vt 0.5 0.5
vt 0.5 0.5
vt 0.5 0.5
vt 0.5 0.5
vt 0.5 0.5
vt 1 0.5
vt 0.6545084714889526 0.024471741169691086
vt 0.09549150615930557 0.20610737800598145
vt 0.09549150615930557 0.7938926219940186
vt 0.6545084714889526 0.9755282402038574
vt 1 0.5
vn 0 0.0031249846947570214 0.9999951172234081
vn 0.9510518750888226 0.0031249846279550455 0.30901547754296965
vn 0.5877823710501763 0.003124984616397216 -0.8090130522765254
vn -0.5877823710501763 0.003124984616397216 -0.8090130522765254
vn -0.9510518750888226 0.0031249846279550455 0.30901547754296965
vn -2.44928154083881e-16 0.0031249846947570214 0.9999951172234081
vn 0 0.0031249846947570214 0.9999951172234081
vn 0.9510518750888226 0.0031249846279550455 0.30901547754296965
vn 0.5877823710501763 0.003124984616397216 -0.8090130522765254
vn -0.5877823710501763 0.003124984616397216 -0.8090130522765254
vn -0.9510518750888226 0.0031249846279550455 0.30901547754296965
vn -2.44928154083881e-16 0.0031249846947570214 0.9999951172234081
vn 0 1 0
vn 0 1 0
vn 0 1 0
vn 0 1 0
vn 0 1 0
vn 0 1 0
vn 0 1 0
vn 0 1 0
vn 0 1 0
vn 0 1 0
vn 0 1 0
vn 0 -1 0
vn 0 -1 0
vn 0 -1 0
vn 0 -1 0
vn 0 -1 0
vn 0 -1 0
vn 0 -1 0
vn 0 -1 0
vn 0 -1 0
vn 0 -1 0
vn 0 -1 0
f 275/275/275 281/281/281 276/276/276
f 281/281/281 282/282/282 276/276/276
f 276/276/276 282/282/282 277/277/277
f 282/282/282 283/283/283 277/277/277
f 277/277/277 283/283/283 278/278/278
f 283/283/283 284/284/284 278/278/278
f 278/278/278 284/284/284 279/279/279
f 284/284/284 285/285/285 279/279/279
f 279/279/279 285/285/285 280/280/280
f 285/285/285 286/286/286 280/280/280
f 292/292/292 293/293/293 287/287/287
f 293/293/293 294/294/294 288/288/288
f 294/294/294 295/295/295 289/289/289
f 295/295/295 296/296/296 290/290/290
f 296/296/296 297/297/297 291/291/291
f 304/304/304 303/303/303 298/298/298
f 305/305/305 304/304/304 299/299/299
f 306/306/306 305/305/305 300/300/300
f 307/307/307 306/306/306 301/301/301
f 308/308/308 307/307/307 302/302/302
o 
v 0.8 3.617297403139341 0.4000000000000001
v 0.8 3.617297403139341 0.4000000000000001
v 0.8 3.617297403139341 0.4000000000000001
v 0.8 3.617297403139341 0.4000000000000001
v 0.8 3.617297403139341 0.4000000000000001
v 0.8 3.617297403139341 0.4000000000000001
v 0.8 4.11729740313934 0.19999999701976776
v 0.990211296081543 4.117297403139341 0.33819659948349
v 0.9175570487976075 4.117297403139341 0.5618033945560456
v 0.6824429512023926 4.117297403139341 0.5618033945560456
v 0.6097887039184571 4.117297403139341 0.33819659948349
v 0.8 4.11729740313934 0.19999999701976776
vt 0 1
vt 0.20000000298023224 1
vt 0.4000000059604645 1
vt 0.6000000238418579 1
vt 0.800000011920929 1
vt 1 1
vt 0 0
vt 0.20000000298023224 0
vt 0.4000000059604645 0
vt 0.6000000238418579 0
vt 0.800000011920929 0
vt 1 0
vn 0 -0.37139067121577235 -0.9284766929405919
vn 0.8830338132611646 -0.371390671049007 -0.28691506425284646
vn 0.5457449051644785 -0.3713906768187593 0.7511534221842553
vn -0.5457449051644785 -0.3713906768187593 0.7511534221842553
vn -0.8830338132611646 -0.371390671049007 -0.28691506425284646
vn -2.27411194335645e-16 -0.37139067121577235 -0.9284766929405919
vn 0 -0.37139067121577235 -0.9284766929405919
vn 0.8830338132611646 -0.371390671049007 -0.28691506425284646
vn 0.5457449051644785 -0.3713906768187593 0.7511534221842553
vn -0.5457449051644785 -0.3713906768187593 0.7511534221842553
vn -0.8830338132611646 -0.371390671049007 -0.28691506425284646
vn -2.27411194335645e-16 -0.37139067121577235 -0.9284766929405919
f 309/309/309 315/315/315 310/310/310
f 315/315/315 316/316/316 310/310/310
f 310/310/310 316/316/316 311/311/311
f 316/316/316 317/317/317 311/311/311
f 311/311/311 317/317/317 312/312/312
f 317/317/317 318/318/318 312/312/312
f 312/312/312 318/318/318 313/313/313
f 318/318/318 319/319/319 313/313/313
f 313/313/313 319/319/319 314/314/314
f 319/319/319 320/320/320 314/314/314
o 
v 0.8 4.427125939037335 0.4480115383552421
v 0.8960171851127648 4.275090963665983 0.22968593561694825
v 0.6245557029849247 4.256023874802386 0.30679048948641713
v 0.8960171851127648 4.275090963665983 0.22968593561694825
v 0.8 4.038822483596331 0.35198846164475794
v 0.6245557029849247 4.256023874802386 0.30679048948641713
v 0.8 4.038822483596331 0.35198846164475794
v 0.7039828148872352 4.190857458967683 0.5703140643830518
v 0.6245557029849247 4.256023874802386 0.30679048948641713
v 0.7039828148872352 4.190857458967683 0.5703140643830518
v 0.8 4.427125939037335 0.4480115383552421
v 0.6245557029849247 4.256023874802386 0.30679048948641713
v 0.8 4.427125939037335 0.4480115383552421
v 0.7039828148872352 4.190857458967683 0.5703140643830518
v 0.9754442970150754 4.20992454783128 0.4932095105135829
v 0.7039828148872352 4.190857458967683 0.5703140643830518
v 0.8 4.038822483596331 0.35198846164475794
v 0.9754442970150754 4.20992454783128 0.4932095105135829
v 0.8 4.038822483596331 0.35198846164475794
v 0.8960171851127648 4.275090963665983 0.22968593561694825
v 0.9754442970150754 4.20992454783128 0.4932095105135829
v 0.8960171851127648 4.275090963665983 0.22968593561694825
v 0.8 4.427125939037335 0.4480115383552421
v 0.9754442970150754 4.20992454783128 0.4932095105135829
vt 0.875 1
vt 0.75 0.5
vt 1 0.5
vt 0.75 0.5
vt 0.875 0
vt 1 0.5
vt 0.125 0
vt 0.25 0.5
vt 0 0.5
vt 0.25 0.5
vt 0.125 1
vt 0 0.5
vt 0.375 1
vt 0.25 0.5
vt 0.5 0.5
vt 0.25 0.5
vt 0.375 0
vt 0.5 0.5
vt 0.625 0
vt 0.75 0.5
vt 0.5 0.5
vt 0.75 0.5
vt 0.625 1
vt 0.5 0.5
vn -0.22928631877213504 0.7485869887819434 -0.622129652283433
vn -0.22928631877213504 0.7485869887819434 -0.622129652283433
vn -0.22928631877213504 0.7485869887819434 -0.622129652283433
vn -0.22928631877213504 -0.3723485171454446 -0.8993243940889801
vn -0.22928631877213504 -0.3723485171454446 -0.8993243940889801
vn -0.22928631877213504 -0.3723485171454446 -0.8993243940889801
vn -0.7836417872284437 -0.6155096965838084 0.0839843004419203
vn -0.7836417872284437 -0.6155096965838084 0.0839843004419203
vn -0.7836417872284437 -0.6155096965838084 0.0839843004419203
vn -0.7836417872284437 0.5054258093435798 0.3611790422474675
vn -0.7836417872284437 0.5054258093435798 0.3611790422474675
vn -0.7836417872284437 0.5054258093435798 0.3611790422474675
vn 0.22928631877213504 0.3723485171454446 0.8993243940889801
vn 0.22928631877213504 0.3723485171454446 0.8993243940889801
vn 0.22928631877213504 0.3723485171454446 0.8993243940889801
vn 0.22928631877213504 -0.7485869887819434 0.622129652283433
vn 0.22928631877213504 -0.7485869887819434 0.622129652283433
vn 0.22928631877213504 -0.7485869887819434 0.622129652283433
vn 0.7836417872284437 -0.5054258093435798 -0.3611790422474675
vn 0.7836417872284437 -0.5054258093435798 -0.3611790422474675
vn 0.7836417872284437 -0.5054258093435798 -0.3611790422474675
vn 0.7836417872284437 0.6155096965838084 -0.0839843004419203
vn 0.7836417872284437 0.6155096965838084 -0.0839843004419203
vn 0.7836417872284437 0.6155096965838084 -0.0839843004419203
f 321/321/321 322/322/322 323/323/323
f 324/324/324 325/325/325 326/326/326
f 327/327/327 328/328/328 329/329/329
f 330/330/330 331/331/331 332/332/332
f 333/333/333 334/334/334 335/335/335
f 336/336/336 337/337/337 338/338/338
f 339/339/339 340/340/340 341/341/341
f 342/342/342 343/343/343 344/344/344
